<svg height="480pt" viewBox="0 0 480 480" width="480pt" xmlns="http://www.w3.org/2000/svg">
<g fill="#ccd3df">
<path d="m232 312h16v168h-16zm0 0"/>
<path d="m264.058594 313.117188 15.847656-2.261719 7.996094 55.996093-15.84375 2.261719zm0 0"/>
<path d="m192.074219 366.890625 8.011719-55.996094 15.84375 2.265625-8.007813 55.996094zm0 0"/>
</g>
<path d="m160 384c-5.792969 0-11.257812 1.289062-16.222656 3.503906-2.273438-24.398437-22.785156-43.503906-47.777344-43.503906-26.511719 0-48 21.488281-48 48 0 3.105469.320312 6.128906.878906 9.0625-2.863281-.648438-5.816406-1.0625-8.878906-1.0625-22.089844 0-40 17.910156-40 40s17.910156 40 40 40 40-17.910156 40-40c0-.992188-.222656-1.921875-.289062-2.894531 5.089843 1.839843 10.5625 2.894531 16.289062 2.894531 9.199219 0 17.761719-2.632812 25.0625-7.121094 4.050781 17.800782 19.90625 31.121094 38.9375 31.121094 22.089844 0 40-17.910156 40-40s-17.910156-40-40-40zm0 0" fill="#b8cbd9"/>
<path d="m320 384c5.792969 0 11.257812 1.289062 16.222656 3.503906 2.273438-24.398437 22.785156-43.503906 47.777344-43.503906 26.511719 0 48 21.488281 48 48 0 3.105469-.320312 6.128906-.878906 9.0625 2.863281-.648438 5.816406-1.0625 8.878906-1.0625 22.089844 0 40 17.910156 40 40s-17.910156 40-40 40-40-17.910156-40-40c0-.992188.222656-1.921875.289062-2.894531-5.089843 1.839843-10.5625 2.894531-16.289062 2.894531-9.199219 0-17.761719-2.632812-25.0625-7.121094-4.050781 17.800782-19.90625 31.121094-38.9375 31.121094-22.089844 0-40-17.910156-40-40s17.910156-40 40-40zm0 0" fill="#b8cbd9"/>
<path d="m312 216 40 88h-64v-88" fill="#475673"/>
<path d="m168 216-40 88h64v-88" fill="#475673"/>
<path d="m360 120c0-66.273438-53.726562-120-120-120s-120 53.726562-120 120c0 49.191406 29.632812 91.425781 72 109.953125v90.046875h96v-90.046875c42.367188-18.527344 72-60.761719 72-109.953125zm0 0" fill="#fcd770"/>
<path d="m120 120c0 33.664062 13.886719 64.054688 36.222656 85.832031 7.746094 1.328125 15.65625 2.167969 23.777344 2.167969 77.320312 0 140-62.679688 140-140 0-14.976562-2.40625-29.382812-6.761719-42.910156-20.277343-15.675782-45.628906-25.089844-73.238281-25.089844-66.273438 0-120 53.726562-120 120zm0 0" fill="#ffe283"/>
<path d="m192 256h96v32h-96zm0 0" fill="#c18e59"/>
<path d="m192 288h96v32h-96zm0 0" fill="#976947"/>
<path d="m288 112h-16v-16h-16v16h-32v-16h-16v16h-16v16h16v128h16v-128h32v128h16v-128h16zm0 0" fill="#fff"/>
</svg>