<svg id="Flat" height="512" viewBox="0 0 512 512" width="512" xmlns="http://www.w3.org/2000/svg"><path d="m312 240v224h-280v-384h120a159.994 159.994 0 0 1 160 160z" fill="#7e8589"/><g fill="#d0d2d4"><path d="m144 176v288h-16v-288a8 8 0 0 1 16 0z"/><path d="m111.81 177.74-63.61 286.26-.36 1.58a7.5 7.5 0 0 0 .16-1.58h-16a7.992 7.992 0 0 1 .19-1.74l7.81-35.14 8-36 48.19-216.86a8 8 0 0 1 15.62 3.48z"/><path d="m207.81 177.74-63.61 286.26-.36 1.58a7.5 7.5 0 0 0 .16-1.58h-16a7.992 7.992 0 0 1 .19-1.74l15.81-71.14 48.19-216.86a8 8 0 0 1 15.62 3.48z"/><path d="m48 176v288h-16v-288a8 8 0 0 1 16 0z"/><path d="m40 152a8 8 0 0 1 -8-8v-64a8 8 0 0 1 16 0v64a8 8 0 0 1 -8 8z"/><path d="m104 152a7.976 7.976 0 0 1 -5.657-2.343l-64-64a8 8 0 0 1 11.314-11.314l64 64a8 8 0 0 1 -5.657 13.657z"/><path d="m103.994 152a8 8 0 0 1 -6.394-12.8l48-64a8 8 0 0 1 12.8 9.6l-48 64a7.985 7.985 0 0 1 -6.406 3.2z"/><path d="m200 152a8 8 0 0 1 -5.657-13.657l48-48a8 8 0 0 1 11.314 11.314l-48 48a7.976 7.976 0 0 1 -5.657 2.343z"/><path d="m200.006 152a7.987 7.987 0 0 1 -6.406-3.2l-48-64a8 8 0 1 1 12.8-9.6l48 64a8 8 0 0 1 -6.394 12.8z"/><path d="m263.992 192a8 8 0 0 1 -7.837-6.433l-16-80a8 8 0 1 1 15.69-3.138l16 80a8 8 0 0 1 -6.276 9.414 8.108 8.108 0 0 1 -1.577.157z"/></g><path d="m344 240v224h-32v-224a159.994 159.994 0 0 0 -160-160h-128v-32h128c106.04 0 192 85.96 192 192z" fill="#e9eef2"/><path d="m344 336v128h-32v-128a159.994 159.994 0 0 0 -160-160h-128v-32h128c106.04 0 192 85.96 192 192z" fill="#e9eef2"/><path d="m296 240a192 192 0 0 1 192 192v32a0 0 0 0 1 0 0h-384a0 0 0 0 1 0 0v-32a192 192 0 0 1 192-192z" fill="#d0d2d4"/><path d="m240 432-152-32 8-32 152 32z" fill="#e1e3e6"/><path d="m264 384-144-64 16-32 144 64z" fill="#e1e3e6"/><path d="m344 304h-72l-48 160h232z" fill="#e9eef2"/><path d="m136 410.11v53.89h-32v-32a192.793 192.793 0 0 1 2.06-28.2z" fill="#3397e8"/><path d="m168 416.84v47.16h-32v-53.89z" fill="#2978b8"/><path d="m200 423.58v40.42h-32v-47.16z" fill="#3397e8"/><path d="m233.98 430.73-9.98 33.27h-24v-40.42z" fill="#2978b8"/><path d="m328 336h-32l-40 128h160z" fill="#7e8589"/><path d="m159.48 337.55-13.64 40.94-32.18-6.77a191.059 191.059 0 0 1 21.69-44.9z" fill="#3397e8"/><path d="m189.68 350.97-11.45 34.34-32.39-6.82 13.64-40.94z" fill="#2978b8"/><path d="m219.87 364.39-9.25 27.74-32.39-6.82 11.45-34.34z" fill="#3397e8"/><path d="m249.88 377.73-6.39 21.32-32.87-6.92 9.25-27.74z" fill="#2978b8"/><path d="m48.2 464-.36 1.58a7.5 7.5 0 0 0 .16-1.58z" fill="#d0d2d4"/></svg>