<svg id="Layer_5" enable-background="new 0 0 64 64" height="512" viewBox="0 0 64 64" width="512" xmlns="http://www.w3.org/2000/svg">
<circle cx="32" cy="21" fill="#e6e9ed" r="19"/>
<path d="m6.24 51c-1.17 0-2.23-.48-3-1.24-.76-.77-1.24-1.83-1.24-3 0-1.13.45-2.21 1.24-3l12.66-12.66c1.86 2.94 4.49 5.34 7.61 6.9h-4.51c-.55 0-1 .45-1 1 0 .57.16 1.11.44 1.56l-9.2 9.2c-.79.79-1.87 1.24-3 1.24z" fill="#969faa"/>
<circle cx="32" cy="21" fill="#4fc1e9" r="15"/>
<path d="m37.73 28h-8.15c-.92 0-1.78.31-2.46.85l-2.9-2.9.65-1.33c-.18-.36-.35-.75-.48-1.15l-1.39-.47v-4l1.39-.47c.13-.4.3-.79.48-1.15l-.65-1.33 2.83-2.83 1.33.65c.36-.18.75-.35 1.15-.48l.47-1.39h4l.47 1.39c.4.13.79.3 1.15.48l1.33-.65 2.83 2.83-.65 1.33c.18.36.35.75.48 1.15l1.39.47v4l-1.39.47c-.13.4-.3.79-.48 1.15l.65 1.33zm-5.73-3c2.21 0 4-1.79 4-4s-1.79-4-4-4-4 1.79-4 4 1.79 4 4 4z" fill="#fcd770"/>
<path d="m57 56v3c0 1.66-1.34 3-3 3h-2c-1.66 0-3-1.34-3-3v-3h6.32c.56 0 1.1-.08 1.61-.22z" fill="#838f9b"/>
<path d="m24.68 56h6.32v3c0 1.66-1.34 3-3 3h-2c-1.66 0-3-1.34-3-3v-3l.07-.22c.51.14 1.05.22 1.61.22z" fill="#838f9b"/>
<path d="m26 42 8 8v6h-3-6.32c-.56 0-1.1-.08-1.61-.22-2.04-.57-3.68-2.19-4.21-4.32l-.7-2.82c-.11-.43-.16-.86-.16-1.3 0-2.95 2.39-5.34 5.34-5.34h.66z" fill="#ffeaa7"/>
<path d="m56 42h.66c1.48 0 2.81.6 3.78 1.56.96.97 1.56 2.3 1.56 3.78 0 .44-.05.87-.16 1.3l-.7 2.82c-.53 2.13-2.17 3.75-4.21 4.32-.51.14-1.05.22-1.61.22h-6.32-3v-6l8-8z" fill="#ffeaa7"/>
<path d="m34 50h12v6h-12z" fill="#ccd1d9"/>
<path d="m28 42h12 14l-8 8h-4-4-4l-8-8z" fill="#fcd770"/>
<path d="m54.4 31.56c-.23-2.03-1.94-3.56-3.98-3.56h-20.84c-.92 0-1.78.31-2.46.85-.83.64-3.12 13.15-3.12 13.15h32z" fill="#69d6f4"/>
<path d="m24.61 38-.61 4h-.66-2.34c-.83 0-1.58-.34-2.12-.88-.17-.17-.32-.35-.44-.56-.28-.45-.44-.99-.44-1.56 0-.55.45-1 1-1h4.51z" fill="#ccd1d9"/>
<path d="m62 39c0 .83-.34 1.58-.88 2.12s-1.29.88-2.12.88h-2.34-.66l-.61-4h5.61c.55 0 1 .45 1 1z" fill="#ccd1d9"/>
<circle cx="25" cy="50" fill="#ff826e" r="2"/>
<circle cx="55" cy="50" fill="#ff826e" r="2"/>
</svg>