<svg xmlns="http://www.w3.org/2000/svg" version="1.1" xmlns:xlink="http://www.w3.org/1999/xlink" xmlns:svgjs="http://svgjs.com/svgjs" width="512" height="512" x="0" y="0" viewBox="0 0 682.667 682.667" style="enable-background:new 0 0 512 512" xml:space="preserve" class=""><g><defs><clipPath id="a" clipPathUnits="userSpaceOnUse"><path d="M0 512h512V0H0Z" fill="#000000" data-original="#000000"></path></clipPath></defs><g clip-path="url(#a)" transform="matrix(1.33333 0 0 -1.33333 0 682.667)"><path d="M0 0c-99.567 0-180.282 80.715-180.282 180.282v151.436C-180.282 431.285-99.567 512 0 512c99.567 0 180.281-80.715 180.281-180.282V180.282C180.281 80.715 99.567 0 0 0" style="fill-opacity:1;fill-rule:nonzero;stroke:none" transform="translate(256)" fill="#b0d8fd" data-original="#b0d8fd" class=""></path><path d="M0 0a182.001 182.001 0 0 1-1.424-22.745v-151.437c0-99.566 80.715-180.281 180.282-180.281 60.565 0 114.153 29.867 146.843 75.675z" style="fill-opacity:1;fill-rule:nonzero;stroke:none" transform="translate(77.142 354.463)" fill="#72bafd" data-original="#72bafd" class=""></path><path d="M0 0c-10.668 0-19.316 8.648-19.316 19.316S-10.668 38.632 0 38.632c-99.567 0-180.282-80.715-180.282-180.282v-151.437c0-99.566 80.715-180.281 180.282-180.281 45.656 0 87.34 16.98 119.103 44.958l.018.096-219.33 186.456z" style="fill-opacity:1;fill-rule:nonzero;stroke:none" transform="translate(256 473.368)" fill="#9ccefd" data-original="#9ccefd" class=""></path><path d="M0 0c0 78.143 63.574 141.716 141.716 141.716 78.143 0 141.717-63.573 141.717-141.716s-63.574-141.716-141.717-141.716C63.574-141.716 0-78.143 0 0" style="fill-opacity:1;fill-rule:nonzero;stroke:none" transform="translate(114.284 331.718)" fill="#ffdfcf" data-original="#ffdfcf"></path><path d="M0 0c-55.255 55.255-55.255 145.162 0 200.417 22.384 22.384 50.455 35.698 79.605 39.946-42.807 6.239-87.941-7.075-120.812-39.946-55.255-55.255-55.255-145.162 0-200.417C-8.336-32.871 36.798-46.185 79.605-39.946 50.455-35.697 22.384-22.384 0 0" style="fill-opacity:1;fill-rule:nonzero;stroke:none" transform="translate(196.999 231.51)" fill="#ffcebf" data-original="#ffcebf"></path><path d="M0 0c0-13.3-13.539-24.082-30.241-24.082C-46.942-24.082-60.482-13.3-60.482 0s13.54 24.082 30.241 24.082C-13.539 24.082 0 13.3 0 0" style="fill-opacity:1;fill-rule:nonzero;stroke:none" transform="translate(204.283 292.455)" fill="#fda0c1" data-original="#fda0c1"></path><path d="M0 0c0-13.3 13.539-24.082 30.241-24.082C46.942-24.082 60.482-13.3 60.482 0s-13.54 24.082-30.241 24.082C13.539 24.082 0 13.3 0 0" style="fill-opacity:1;fill-rule:nonzero;stroke:none" transform="translate(307.717 292.455)" fill="#fda0c1" data-original="#fda0c1"></path><path d="M0 0v-12.362" style="stroke-width:15;stroke-linecap:round;stroke-linejoin:round;stroke-miterlimit:10;stroke-dasharray:none;stroke-opacity:1" transform="translate(191.667 328)" fill="none" stroke="#6e6e6e" stroke-width="15" stroke-linecap="round" stroke-linejoin="round" stroke-miterlimit="10" stroke-dasharray="none" stroke-opacity="" data-original="#6e6e6e"></path><path d="M0 0v-12.362" style="stroke-width:15;stroke-linecap:round;stroke-linejoin:round;stroke-miterlimit:10;stroke-dasharray:none;stroke-opacity:1" transform="translate(320.333 328)" fill="none" stroke="#6e6e6e" stroke-width="15" stroke-linecap="round" stroke-linejoin="round" stroke-miterlimit="10" stroke-dasharray="none" stroke-opacity="" data-original="#6e6e6e"></path><path d="M0 0c4.124-4.732 10.191-7.727 16.961-7.727 6.77 0 12.837 2.995 16.961 7.727" style="stroke-width:15;stroke-linecap:round;stroke-linejoin:round;stroke-miterlimit:10;stroke-dasharray:none;stroke-opacity:1" transform="translate(239.039 316.005)" fill="none" stroke="#6e6e6e" stroke-width="15" stroke-linecap="round" stroke-linejoin="round" stroke-miterlimit="10" stroke-dasharray="none" stroke-opacity="" data-original="#6e6e6e"></path><path d="M0 0c-8.674-21.229-33.002-31.444-54.232-22.771-16.218 6.627-24.021 25.212-17.394 41.43 4.988 12.209 18.982 18.08 31.187 13.096 9.001-3.679 13.332-13.994 9.655-22.994a12.532 12.532 0 0 0-6.791-6.857 7.499 7.499 0 0 1-4.012-9.818 7.497 7.497 0 0 1 9.818-4.012C-24.97-9.071-19.688-3.74-16.898 3.086c6.804 16.658-1.21 35.748-17.868 42.555-19.864 8.113-42.63-1.445-50.746-21.308C-95.267.459-83.78-26.9-59.905-36.656a56.28 56.28 0 0 1 21.331-4.204c22.315.001 43.511 13.287 52.459 35.186 6.958 17.028 6.867 35.745-.253 52.705a69.818 69.818 0 0 1-4.424 8.745 140.614 140.614 0 0 1-33.091 11.77C-.255 54.555 10.439 25.55 0 0" style="fill-opacity:1;fill-rule:nonzero;stroke:none" transform="translate(310.354 402.58)" fill="#c4715a" data-original="#c4715a"></path></g></g></svg>