<svg enable-background="new 0 0 512 512" height="512" viewBox="0 0 512 512" width="512" xmlns="http://www.w3.org/2000/svg">
<g>
<g fill="#c6beb9">
    <path d="m502.785 99.915c-.487 1.574-9.686 1.909-10.057 2.18-.098.071-41.877 38.687-42.105 38.555 22.37 12.883 47.849 12.158 56.612 3.396 7.936-7.936 5.626-24.466-4.45-44.131z"/>
    <path d="m381.223 69.048s29.288-59.345 30.862-59.832c-19.665-10.077-36.195-12.387-44.131-4.451-6.909 6.909-8.895 22.978-1.908 39.313-.059-.137 11.915 21.931 15.177 24.97z"/>
    <path d="m425.177 86.823c32.173 20.365 60.465 28.023 74.208 17.996.371-.271.719-.568 1.045-.894 9.274-9.274-3.882-37.467-29.386-62.97-25.503-25.503-53.696-38.66-62.97-29.386-9.042 9.042-9.004 39.104 15.253 64.088 1.039 1.069 1.85 11.166 1.85 11.166z"/>
</g>
<path d="m387.637 119.476c15.356 15.356 69.907 17.112 69.907 17.112l41.843-31.769c-21.518 15.702-78.705-11.955-130.611-63.86l-.063.063c.063-.064-1.288 58.242 18.924 78.454z" fill="#dad0cb"/>
<g fill="#ebe3e0">
    <path d="m425.177 86.823 10.379-10.379c1.054-1.054 1.052-2.753.013-3.822-23.386-24.086-35.639-50.07-28.388-60.008l-28.661 37.75c15.673 14.598 31.591 26.922 46.657 36.459z"/>
    <path d="m438.301 123.899s-174.048 119.634-190.331 134.099c3.4 6.458 63.694 25.287 76.135 32.762 22.924-21.751 47.002-42.301 72.142-61.556l109.367-83.765c-12.046 8.878-38.832-.277-67.313-21.54z"/>
    <path d="m77.016 488.492c29.12 21.246 56.151 29.622 67.03 18.742.508-.508.974-1.051 1.399-1.629l77.961-101.789 13.982-150.369z"/>
</g>
<path d="m256.936 303.756c-.048.011-.096.022-.144.032.048-.01.096-.021.144-.032z" fill="#80b4fb"/>
<g fill="#f4f1f1">
    <path d="m223.406 296.513c.001.001 13.982-62.709-39.011-71.97-21.871 20.531-44.778 39.975-68.641 58.253l-109.368 83.765c.001 0 .001-.001.002-.001-.575.424-1.116.888-1.622 1.394-14.438 14.438 5.036 57.322 43.497 95.783 9.48 9.48 19.228 17.806 28.753 24.755l146.39-191.133z"/>
    <path d="m438.301 123.899c-8.917-6.657-18-14.501-26.849-23.35-37.114-37.114-56.548-78.346-44.89-94.162l-83.765 109.367c-19.255 25.14-39.805 49.218-61.556 72.142 7.475 12.442 7.018 46.001 16.147 57.168 11.007-.48 44.766-3.535 46.627 0 16.283-14.466 33.1-28.347 50.422-41.614z"/>
</g>
<path d="m246.186 223.349c-9.216-11.273-17.63-23.236-25.159-35.807l-.836-1.395c-1.756-2.932-6.061-2.754-7.569.313l-4.129 8.396c-3.971 8.074-10.86 14.338-19.274 17.525l-5.05 1.913c-2.512.952-3.552 3.944-2.172 6.248l2.259 3.771c7.058 11.785 14.895 23.035 23.44 33.684z" fill="#e28086"/>
<path d="m301.309 319.001c3.473-6.69 9.007-12.136 15.835-15.494l8.396-4.129c3.066-1.508 3.244-5.813.313-7.569l-1.395-.836c-12.571-7.529-24.534-15.943-35.807-25.159l-16.117 17.009z" fill="#da4a54"/>
<path d="m340.344 401.088-56.241-118.272-30.418 9.591 18.849 80.48 23.443 49.299c.254.533 1.001.565 1.299.055l10.903-18.662c2.045-3.501 6.024-5.393 10.03-4.77l21.357 3.322c.585.091 1.032-.509.778-1.043z" fill="#dd636e"/>
<path d="m223.406 296.513v130.963c0 .591.662.941 1.15.608l17.861-12.171c3.35-2.283 7.756-2.283 11.107 0l17.861 12.171c.488.333 1.15-.017 1.15-.608v-130.963z" fill="#e28086"/>
<circle cx="247.97" cy="264.03" fill="#ffe07d" r="40.721"/>
<circle cx="247.97" cy="264.03" fill="#ffd064" r="14.966"/>
</g>
</svg>