<svg id="Travel" height="512" viewBox="0 0 64 64" width="512" xmlns="http://www.w3.org/2000/svg"><path d="m15 19h40a0 0 0 0 1 0 0v34a4 4 0 0 1 -4 4h-32a4 4 0 0 1 -4-4v-34a0 0 0 0 1 0 0z" fill="#499f96"/><rect fill="#f8d251" height="14" rx="4" width="48" x="11" y="6"/><g fill="#bd3d5c"><path d="m21 3h5v22h-5z"/><path d="m19 25h9v4h-9z"/><path d="m21 29h5v3h-5z"/><path d="m44 3h5v22h-5z"/></g><path d="m42 25h9v4h-9z" fill="#9e2849"/><path d="m44 29h5v3h-5z" fill="#bd3d5c"/><rect fill="#a4dec2" height="14" rx="1" width="29" x="21" y="37"/><path d="m5 18h26a0 0 0 0 1 0 0v5a0 0 0 0 1 0 0h-28a0 0 0 0 1 0 0v-3a2 2 0 0 1 2-2z" fill="#aa7b4f"/><path d="m3 22h29a1 1 0 0 1 1 1v37a1 1 0 0 1 -1 1h-29a0 0 0 0 1 0 0v-39a0 0 0 0 1 0 0z" fill="#cc8355"/><circle cx="18" cy="36" fill="#fff" r="9"/><path d="m8 10h20v12h-20z" fill="#64c1f7"/><path d="m22 13h2v9h-2z" fill="#57565c"/><path d="m17 13h2v3h-2z" fill="#57565c"/><path d="m17 18h2v4h-2z" fill="#57565c"/><path d="m12 13h2v9h-2z" fill="#57565c"/><path d="m55 30h4a2 2 0 0 1 2 2v18a2 2 0 0 1 -2 2h-4a0 0 0 0 1 0 0v-22a0 0 0 0 1 0 0z" fill="#a4dec2"/><path d="m18 26a10 10 0 1 0 10 10 10.011 10.011 0 0 0 -10-10zm-1 4.973a17.7 17.7 0 0 1 -1.969-.215 5.329 5.329 0 0 1 1.969-2.458zm0 2v2.027h-2.965a13.843 13.843 0 0 1 .347-2.326 19.459 19.459 0 0 0 2.618.3zm2 0a19.459 19.459 0 0 0 2.618-.3 13.843 13.843 0 0 1 .347 2.327h-2.965zm0-2v-2.673a5.329 5.329 0 0 1 1.969 2.461 17.7 17.7 0 0 1 -1.969.212zm3.551-1.544a8.038 8.038 0 0 1 .862.7c-.149.055-.3.107-.463.158-.123-.301-.257-.587-.399-.858zm-9.5.856c-.158-.051-.314-.1-.463-.158a8.038 8.038 0 0 1 .862-.7c-.143.273-.277.559-.4.858zm-.611 1.9a15.9 15.9 0 0 0 -.411 2.815h-1.96a7.947 7.947 0 0 1 1.173-3.262 11.878 11.878 0 0 0 1.197.451zm-.411 4.815a16.515 16.515 0 0 0 .216 1.872 10.933 10.933 0 0 0 -1.439.6 7.946 7.946 0 0 1 -.737-2.472zm2.006 0h2.965v1.029a19.256 19.256 0 0 0 -2.811.335q-.106-.654-.154-1.364zm2.965 3.028v3.672a6.132 6.132 0 0 1 -2.332-3.4 17.633 17.633 0 0 1 2.332-.272zm2 3.672v-3.672a17.671 17.671 0 0 1 2.332.28 6.133 6.133 0 0 1 -2.332 3.392zm0-5.674v-1.026h2.965q-.046.709-.154 1.364a19.428 19.428 0 0 0 -2.811-.335zm4.971-1.026h1.96a7.919 7.919 0 0 1 -.736 2.473 10.946 10.946 0 0 0 -1.44-.6 16.515 16.515 0 0 0 .216-1.873zm0-2a15.9 15.9 0 0 0 -.41-2.811 11.878 11.878 0 0 0 1.2-.451 7.947 7.947 0 0 1 1.17 3.262zm-12.071 6.165a8.816 8.816 0 0 1 .821-.339 11.518 11.518 0 0 0 .727 1.745 8.051 8.051 0 0 1 -1.548-1.406zm10.65 1.406a11.549 11.549 0 0 0 .727-1.744q.438.156.822.337a8.092 8.092 0 0 1 -1.548 1.407z" fill="#1a6fb0"/><path d="m10 49h16v2h-16z" fill="#1a6fb0"/><path d="m33 40h17v2h-17z" fill="#007579"/></svg>