<svg width="175" height="70" xmlns="http://www.w3.org/2000/svg">
 <g>
  <path d="m156.93092,16.94168c-104.89308,1.02665 -150.80642,21.80858 -149.4578,30.30395c1.11696,7.33707 40.25437,14.2943 34.34537,-9.8982c-0.40624,-1.59432 -2.93416,-1.38241 -2.19192,0.68228c8.23259,20.82917 -29.54693,15.98815 -30.44608,9.1467c-0.5741,-6.98537 43.49704,-27.78752 145.26001,-29.5796c6.24456,-0.12512 5.09563,-0.69145 2.55956,-0.68539" stroke-width="0" stroke="#000" fill="#000000"/>
  <path d="m27.89993,44.74978c11.06244,-3.56249 22.12491,-5.81248 38.43733,-8.93747c1.06249,-0.125 3.3124,0.06254 -0.31248,0.93751c-22.56239,4.24998 -33.62488,7.56246 -38.24985,9.31245c-1.0625,0.375 -1.1875,-1 0.125,-1.31249z" stroke-width="0" stroke="#000" fill="#000000"/>
  <path d="m76.11806,34.17397c0.06743,-3.16925 -4.31557,-2.89953 -1.61834,-0.26972c0.67431,0.53945 0.47202,0.47202 0.47202,0.94403c-0.74174,9.44033 -16.65543,21.1733 -22.31963,9.3729c-7.68712,-16.38571 50.47625,-47.17969 55.83278,-35.72489c3.30411,6.94538 -30.41133,25.48887 -29.53473,29.80445c1.34862,5.46191 13.0816,4.85502 14.02562,9.91234c1.61293,7.93357 -21.40364,12.77574 -71.16655,14.45718c-1.61834,0.06743 -0.67431,0.74337 0.2023,0.67593c48.98692,-1.67873 74.25006,-5.99864 71.94875,-15.30843c-1.83308,-6.43354 -12.13702,-4.70717 -13.55307,-9.50938c-1.41605,-4.80221 33.84435,-22.84026 29.33189,-30.97612c-7.21902,-13.54898 -68.17267,19.7824 -58.54349,37.76129c7.34997,10.85638 23.41202,1.55348 24.92245,-11.13958z" stroke-width="0" stroke="#000" fill="#000000"/>
  <path d="m102.12008,57.28609c0,0 7.08826,-1.74299 23.35263,-3.30871c26.56182,-2.22872 39.46086,-3.22304 38.63143,-6.63345c-0.95227,-4.22947 -15.20017,-8.15066 -18.91347,-8.00132c-1.8574,-0.01441 -1.85778,-1.08905 -0.96092,-1.47341c0.89686,-0.38437 8.58424,-5.25305 8.39205,-6.47022c-0.19218,-1.21716 -2.17809,-1.40935 -4.61242,-1.28123c-5.27277,0.45564 -16.35198,5.87926 -20.34313,6.50812c-2.6811,0.35594 -8.37538,-0.62166 -8.82381,-4.55063c-0.12092,-1.58182 4.5768,-3.54956 6.64345,-3.58745c1.35704,0.01668 2.40819,1.99539 2.34412,3.08443c-0.17324,3.16328 -26.69017,10.37531 -30.26985,6.57822c-0.75801,-1.09542 0.48764,-3.36259 1.24999,-4.44524c1.90555,-2.49879 5.06086,-3.77963 8.19987,-2.94683c3.68486,1.05114 -1.1008,5.91261 -3.72732,7.70633c-0.82521,0.70202 -1.84603,0.10917 -0.88511,-0.5955c1.39761,-1.03219 5.89366,-5.31711 4.09994,-6.02178c-1.79372,-0.70468 -5.30042,0.40685 -6.64571,2.29674c-0.42352,0.68283 -1.19881,1.696 -0.83386,2.7187c1.59772,4.20091 27.40269,-3.21945 27.46675,-5.20763c0.11865,-1.22399 -0.62393,-1.98591 -1.66559,-2.04997c-1.36918,-0.00947 -4.78793,1.48783 -4.69545,2.5981c0.31084,2.4749 4.61469,3.84595 7.64227,3.48774c5.32015,-0.79489 14.42975,-6.21623 20.11531,-6.59833c3.01089,0 6.34209,0.32031 6.14991,2.11403c-0.30136,2.6125 -5.5942,5.26213 -7.61385,6.89969c2.29259,0.05459 18.16504,3.46159 19.59335,9.17975c1.6656,7.8155 -35.1057,4.93273 -65.53491,11.21076c-2.17809,0.38437 0.70454,-1.06126 1.64433,-1.21091z" stroke-width="0" stroke="#000" fill="#000000"/>
 </g>
</svg>