<svg xmlns="http://www.w3.org/2000/svg" version="1.1" xmlns:xlink="http://www.w3.org/1999/xlink" xmlns:svgjs="http://svgjs.com/svgjs" width="512" height="512" x="0" y="0" viewBox="0 0 511.999 511.999" style="enable-background:new 0 0 512 512" xml:space="preserve" class=""><g><path fill="#6f6571" d="m280.333 318-27.334-55-14.815-11.584L226.999 343l-11.602 11.995-1.481 20.321 26.133 4.634 15.95-15.95z" data-original="#6f6571" class=""></path><path fill="#b6b1b7" d="m240.049 379.95-24.651-24.955-42.655 44.101a8 8 0 0 0-.65 10.362L191.999 436h24l-6.437-19.31a8 8 0 0 1 1.933-8.187z" data-original="#b6b1b7"></path><path fill="#5d5360" d="M319.999 343.331a47.996 47.996 0 0 0-5.068-21.467L287.999 268l-18-20.667-31.816 4.083a40 40 0 0 0 5.113 27.412L279.999 340l2 24 18.25 17.25 19.75-17.25z" data-original="#5d5360" class=""></path><path fill="#a4ccff" d="m287.999 268 26.367-47.812 8.083 18.859a32 32 0 0 0 18.853 17.603l62.031 21.683L415.5 254.5 352 220l-11.418-51.382a40 40 0 0 0-15.294-23.507s-6.418-1.996-9.62-3.277c-11.512-4.604-20.963 14.426-20.963 14.426L250.333 245l6.006 12.46z" data-original="#a4ccff"></path><path fill="#eceaec" d="M426.968 228.57c-4.062-1.641-8.758.344-10.398 4.461l-80 200 14.859 5.938 80-200c1.641-4.102-.359-8.758-4.461-10.399z" data-original="#eceaec"></path><path fill="#a4ccff" d="M191.999 444h-112c-4.422 0-8-3.578-8-8s3.578-8 8-8h112c4.422 0 8 3.578 8 8s-3.578 8-8 8z" data-original="#a4ccff"></path><circle cx="342.778" cy="100" r="24" fill="#e2a975" data-original="#e2a975"></circle><path fill="#a4ccff" d="M342.778 68c-14.288 0-26.389 9.364-30.5 22.291-1.404 4.416 2.743 8.649 7.238 7.525l42.61-10.652c4.507-1.127 6.151-6.814 2.834-10.067C359.235 71.482 351.441 68 342.778 68z" data-original="#a4ccff"></path><path fill="#8bb3ea" d="m259.819 247.027 44.37-88.74c4.111-8.222 12.401-13.085 21.097-13.176a39.976 39.976 0 0 0-8.898-4.955l-.022-.009c-11.512-4.604-24.632.384-30.177 11.474l-44.37 88.74a39.958 39.958 0 0 0-3.636 11.056l18.155 6.044c.68-3.577 1.811-7.095 3.481-10.434z" data-original="#8bb3ea"></path><path fill="#8bb3ea" d="M215.999 140c-13.255 0-24 10.745-24 24v72c13.711 0 25.276-10.21 26.977-23.815L223.999 172h72l8-32z" data-original="#8bb3ea"></path><path fill="#eceaec" d="M7.999 316a7.991 7.991 0 0 1-7.453-5.102 7.996 7.996 0 0 1 4.555-10.352l212.688-82.695c4.102-1.609 8.758.438 10.352 4.555a7.996 7.996 0 0 1-4.555 10.352L10.898 315.453a7.878 7.878 0 0 1-2.899.547z" data-original="#eceaec"></path><path fill="#b6b1b7" d="m281.999 364 6 72h64a17.064 17.064 0 0 0-11.292-16.058l-10.119-3.637a16 16 0 0 1-10.589-15.058V364z" data-original="#b6b1b7"></path><path fill="#8bb3ea" d="M471.429 444h-279.43c-4.422 0-8-3.578-8-8s3.578-8 8-8h279.43c8.547 0 16.586-3.328 22.633-9.375l4.281-4.281a7.996 7.996 0 0 1 11.312 0 7.996 7.996 0 0 1 0 11.312l-4.281 4.281c-9.07 9.071-21.125 14.063-33.945 14.063z" data-original="#8bb3ea"></path></g></svg>