<svg id="Capa_1" enable-background="new 0 0 510 510" height="512" viewBox="0 0 510 510" width="512" xmlns="http://www.w3.org/2000/svg" xmlns:xlink="http://www.w3.org/1999/xlink"><linearGradient id="lg1"><stop offset="0" stop-color="#fbc56d"/><stop offset=".593" stop-color="#dc8758"/><stop offset="1" stop-color="#9e5528"/></linearGradient><linearGradient id="SVGID_1_" gradientUnits="userSpaceOnUse" x1="-.333" x2="532.378" xlink:href="#lg1" y1="368.58" y2="368.58"/><linearGradient id="SVGID_2_" gradientUnits="userSpaceOnUse" x1="-97" x2="422.385" xlink:href="#lg1" y1="368.579" y2="368.579"/><linearGradient id="lg2"><stop offset="0" stop-color="#537983"/><stop offset=".593" stop-color="#554e56"/><stop offset="1" stop-color="#433f43"/></linearGradient><linearGradient id="SVGID_3_" gradientUnits="userSpaceOnUse" x1="33.333" x2="156.696" xlink:href="#lg2" y1="419.502" y2="419.502"/><linearGradient id="lg3"><stop offset="0" stop-color="#fef056"/><stop offset=".5213" stop-color="#fbc56d"/><stop offset="1" stop-color="#c86d36"/></linearGradient><linearGradient id="SVGID_6_" gradientUnits="userSpaceOnUse" x1="315" x2="462.764" xlink:href="#lg3" y1="397.583" y2="397.583"/><linearGradient id="SVGID_9_" gradientUnits="userSpaceOnUse" x1="117.63" x2="211.881" xlink:href="#lg3" y1="354.447" y2="354.447"/><linearGradient id="SVGID_10_" gradientUnits="userSpaceOnUse" x1="85.065" x2="179.317" xlink:href="#lg3" y1="354.447" y2="354.447"/><linearGradient id="SVGID_11_" gradientUnits="userSpaceOnUse" x1="52.5" x2="146.752" xlink:href="#lg3" y1="354.447" y2="354.447"/><linearGradient id="SVGID_12_" gradientUnits="userSpaceOnUse" x1="19.936" x2="114.187" xlink:href="#lg3" y1="354.447" y2="354.447"/><linearGradient id="SVGID_13_" gradientUnits="userSpaceOnUse" x1="-24.156" x2="615.011" xlink:href="#lg2" y1="277.31" y2="277.31"/><linearGradient id="SVGID_14_" gradientUnits="userSpaceOnUse" x1="15.93" x2="338.329" xlink:href="#lg2" y1="277.31" y2="277.31"/><linearGradient id="SVGID_15_" gradientUnits="userSpaceOnUse" x1="238" x2="398.013" xlink:href="#lg2" y1="277.31" y2="277.31"/><linearGradient id="SVGID_16_" gradientUnits="userSpaceOnUse" x1="185.32" x2="401.897" xlink:href="#lg1" y1="338.218" y2="338.218"/><linearGradient id="SVGID_17_" gradientUnits="userSpaceOnUse" x1="130" x2="323.94" xlink:href="#lg1" y1="251.845" y2="251.845"/><linearGradient id="SVGID_18_" gradientUnits="userSpaceOnUse" x1="130" x2="323.94" xlink:href="#lg1" y1="321.665" y2="321.665"/><linearGradient id="SVGID_19_" gradientUnits="userSpaceOnUse" x1="130" x2="323.94" xlink:href="#lg1" y1="338.215" y2="338.215"/><linearGradient id="SVGID_20_" gradientUnits="userSpaceOnUse" x1="208" x2="312.087" xlink:href="#lg2" y1="418.568" y2="418.568"/><linearGradient id="SVGID_22_" gradientUnits="userSpaceOnUse" x1="25.049" x2="680.101" xlink:href="#lg2" y1="465.146" y2="465.146"/><linearGradient id="SVGID_23_" gradientUnits="userSpaceOnUse" x1="198" x2="502.657" xlink:href="#lg2" y1="465.146" y2="465.146"/><linearGradient id="lg4"><stop offset="0" stop-color="#01d0fb"/><stop offset=".6075" stop-color="#26a6fe"/><stop offset="1" stop-color="#0182fc"/></linearGradient><linearGradient id="SVGID_24_" gradientUnits="userSpaceOnUse" x1="-2.951" x2="794.46" xlink:href="#lg4" y1="474.56" y2="474.56"/><linearGradient id="SVGID_25_" gradientUnits="userSpaceOnUse" x1="148" x2="527.033" xlink:href="#lg4" y1="474.56" y2="474.56"/><linearGradient id="SVGID_26_" gradientUnits="userSpaceOnUse" x1="235.728" x2="282.922" xlink:href="#lg3" y1="112.347" y2="112.347"/><linearGradient id="SVGID_27_" gradientUnits="userSpaceOnUse" x1="226.659" x2="283.341" xlink:href="#lg2" y1="91.75" y2="91.75"/><linearGradient id="lg5"><stop offset="0" stop-color="#bbec6c"/><stop offset=".5857" stop-color="#78a91f"/><stop offset="1" stop-color="#02905d"/></linearGradient><linearGradient id="SVGID_28_" gradientUnits="userSpaceOnUse" x1="211" x2="265.058" xlink:href="#lg5" y1="109.681" y2="109.681"/><linearGradient id="SVGID_29_" gradientUnits="userSpaceOnUse" x1="260.5" x2="313.152" xlink:href="#lg5" y1="109.681" y2="109.681"/><linearGradient id="SVGID_30_" gradientUnits="userSpaceOnUse" x1="177" x2="306.373" xlink:href="#lg5" y1="81.34" y2="81.34"/><linearGradient id="SVGID_31_" gradientUnits="userSpaceOnUse" x1="177" x2="306.373" xlink:href="#lg5" y1="81.335" y2="81.335"/><linearGradient id="SVGID_32_" gradientUnits="userSpaceOnUse" x1="180.334" x2="399" xlink:href="#lg2" y1="167.705" y2="167.705"/><linearGradient id="SVGID_33_" gradientUnits="userSpaceOnUse" x1="138" x2="331.127" xlink:href="#lg2" y1="167.706" y2="167.706"/><linearGradient id="SVGID_34_" gradientUnits="userSpaceOnUse" x1="203" x2="303.211" xlink:href="#lg3" y1="59.103" y2="59.103"/><linearGradient id="SVGID_35_" gradientUnits="userSpaceOnUse" x1="197.667" x2="293.946" xlink:href="#lg3" y1="59.102" y2="59.102"/><linearGradient id="SVGID_36_" gradientUnits="userSpaceOnUse" x1="237.773" x2="289.718" xlink:href="#lg3" y1="21.596" y2="21.596"/><linearGradient id="SVGID_37_" gradientUnits="userSpaceOnUse" x1="207.5" x2="320.444" xlink:href="#lg5" y1="143.855" y2="143.855"/><g><path d="m21.762 291.155h466.477v154.848h-466.477z" fill="url(#SVGID_1_)"/><path d="m300.357 291.16v-.005h-140.736v.005h-137.861v48.6h120.058c8.603 0 15.475 7.164 15.116 15.76l-3.778 90.484h153.667l-4.436-106.244h108.146c20.814 0 37.687 16.873 37.687 37.687v68.553h40.02v-154.84z" fill="url(#SVGID_2_)"/><g fill="url(#SVGID_3_)"><path d="m163.974 411.67v-6.789c0-6.332-4.954-11.763-11.284-11.879-6.45-.118-11.715 5.075-11.715 11.498v7.17c-2.301 0-4.167 1.865-4.167 4.167v30.167h4.167 23 4.167v-30.167c-.001-2.301-1.867-4.167-4.168-4.167z"/><path d="m112.641 411.67v-6.789c0-6.332-4.954-11.763-11.284-11.879-6.45-.118-11.715 5.075-11.715 11.498v7.17c-2.301 0-4.167 1.865-4.167 4.167v30.167h4.167 23 4.167v-30.167c-.001-2.301-1.867-4.167-4.168-4.167z"/><path d="m61.307 411.67v-6.789c0-6.332-4.954-11.763-11.284-11.879-6.45-.118-11.715 5.075-11.715 11.498v7.17c-2.301 0-4.167 1.865-4.167 4.167v30.167h4.167 23 4.167v-30.167c-.001-2.301-1.866-4.167-4.168-4.167z"/></g><g fill="url(#SVGID_6_)"><path d="m377.23 366.89v79.11h-23v-79.11c0-6.59 3.38-12.72 8.94-16.23l2.21-1.39c.21-.14.49-.14.7 0l2.2 1.39c5.57 3.51 8.95 9.64 8.95 16.23z"/><path d="m420.23 366.89v79.11h-23v-79.11c0-6.59 3.38-12.72 8.94-16.23l2.21-1.39c.21-.14.49-.14.7 0l2.2 1.39c5.57 3.51 8.95 9.64 8.95 16.23z"/><path d="m463.23 366.89v79.11h-23v-79.11c0-6.59 3.38-12.72 8.94-16.23l2.21-1.39c.21-.14.49-.14.7 0l2.2 1.39c5.57 3.51 8.95 9.64 8.95 16.23z"/></g><g><path d="m157.323 342.429v32.487c0 1.575-1.277 2.852-2.852 2.852h-8.966c-1.575 0-2.852-1.277-2.852-2.852v-32.487c0-4.203 2.156-8.113 5.702-10.352l1.41-.887c.137-.086.311-.086.447 0l1.409.89c3.55 2.244 5.702 6.15 5.702 10.349z" fill="url(#SVGID_9_)"/><path d="m124.759 342.429v32.487c0 1.575-1.277 2.852-2.852 2.852h-8.966c-1.575 0-2.852-1.277-2.852-2.852v-32.487c0-4.203 2.156-8.113 5.702-10.352l1.41-.887c.137-.086.311-.086.447 0l1.409.89c3.549 2.244 5.702 6.15 5.702 10.349z" fill="url(#SVGID_10_)"/><path d="m92.194 342.429v32.487c0 1.575-1.277 2.852-2.852 2.852h-8.966c-1.575 0-2.852-1.277-2.852-2.852v-32.487c0-4.203 2.156-8.113 5.702-10.352l1.41-.887c.137-.086.311-.086.447 0l1.409.89c3.549 2.244 5.702 6.15 5.702 10.349z" fill="url(#SVGID_11_)"/><path d="m59.629 342.429v32.487c0 1.575-1.277 2.852-2.852 2.852h-8.966c-1.575 0-2.852-1.277-2.852-2.852v-32.487c0-4.203 2.156-8.113 5.702-10.352l1.41-.887c.137-.086.311-.086.447 0l1.409.89c3.55 2.244 5.702 6.15 5.702 10.349z" fill="url(#SVGID_12_)"/></g><path d="m455.642 239.874h-401.284c-9.721 0-18.847 4.686-24.512 12.586l-26.883 37.491c-7.433 10.366-.024 24.795 12.731 24.795h478.613c12.755 0 20.164-14.429 12.731-24.795l-26.884-37.491c-5.665-7.901-14.791-12.586-24.512-12.586z" fill="url(#SVGID_13_)"/><path d="m158.636 314.746h142.706l-3.126-74.872h-136.454z" fill="url(#SVGID_14_)"/><path d="m507.037 289.951-26.884-37.491c-5.665-7.9-14.791-12.586-24.512-12.586h-40.02c9.721 0 18.847 4.685 24.512 12.586l26.884 37.491c7.433 10.366.024 24.795-12.731 24.795h40.02c12.756 0 20.164-14.43 12.731-24.795z" fill="url(#SVGID_15_)"/><path d="m333.586 487.971h-157.172l12.506-299.506h132.16z" fill="url(#SVGID_16_)"/><g><path d="m249.641 248.608h-12.447v-6.871c0-3.08-2.497-5.577-5.577-5.577h-21.21c-3.08 0-5.577 2.497-5.577 5.577v7.766c0 3.08 2.497 5.577 5.577 5.577h12.446v6.871c0 3.08 2.497 5.577 5.577 5.577h21.211c3.08 0 5.577-2.497 5.577-5.577v-7.767c.001-3.079-2.497-5.576-5.577-5.576z" fill="url(#SVGID_17_)"/><path d="m232.908 312.204h-21.211c-3.08 0-5.577 2.497-5.577 5.577v7.766c0 3.08 2.497 5.577 5.577 5.577h21.211c3.08 0 5.577-2.497 5.577-5.577v-7.766c0-3.08-2.496-5.577-5.577-5.577z" fill="url(#SVGID_18_)"/><path d="m333.59 487.97-12.51-299.51h-132.16l-1.2 28.72c13.247 1.587 32.503 2.532 52.895 2.832 23.444.346 42.556 18.9 43.534 42.326l.154 3.698h-5.921c-3.08 0-5.578 2.497-5.578 5.577v7.767c0 3.08 2.497 5.577 5.578 5.577h6.711l8.477 203.013z" fill="url(#SVGID_19_)"/></g><g fill="url(#SVGID_20_)"><path d="m239.825 350.658-2.204-1.392c-.214-.135-.487-.135-.701 0l-2.204 1.392c-5.569 3.517-8.945 9.643-8.945 16.229v121.084h11.5 11.5v-121.084c-.001-6.586-3.377-12.712-8.946-16.229z"/><path d="m275.284 350.658-2.204-1.392c-.214-.135-.487-.135-.701 0l-2.204 1.392c-5.568 3.517-8.945 9.643-8.945 16.229v121.084h11.5 11.5v-121.084c0-6.586-3.377-12.712-8.946-16.229z"/></g><g><path d="m490.158 497.672h-470.316c-10.958 0-19.842-8.884-19.842-19.842v-25.367c0-10.959 8.884-19.842 19.842-19.842h470.315c10.959 0 19.842 8.884 19.842 19.842v25.367c.001 10.958-8.883 19.842-19.841 19.842z" fill="url(#SVGID_22_)"/><path d="m490.158 432.62h-40.02c10.958 0 19.842 8.884 19.842 19.842v25.367c0 10.958-8.884 19.842-19.842 19.842h40.02c10.958 0 19.842-8.884 19.842-19.842v-25.367c0-10.958-8.884-19.842-19.842-19.842z" fill="url(#SVGID_23_)"/></g><g><path d="m510 482.891v14.867c0 6.761-5.481 12.242-12.242 12.242h-485.516c-6.761 0-12.242-5.481-12.242-12.242v-14.871c0-10.783 8.769-19.586 19.551-19.452 10.803.134 21.647-3.919 29.889-12.154 8.1-8.11 18.73-12.16 29.36-12.16s21.26 4.05 29.37 12.16c8.11 8.1 18.74 12.16 29.37 12.16 10.62 0 21.25-4.06 29.36-12.16 8.11-8.11 18.74-12.16 29.37-12.16s21.25 4.05 29.36 12.16c8.11 8.1 18.74 12.16 29.37 12.16s21.26-4.06 29.37-12.16c8.11-8.11 18.73-12.16 29.36-12.16s21.26 4.05 29.37 12.16c8.11 8.1 18.74 12.16 29.36 12.16 10.63 0 21.26-4.06 29.37-12.16 8.11-8.11 18.74-12.16 29.37-12.16s21.26 4.05 29.36 12.16c8.11 8.1 18.74 12.16 29.37 12.16.069 0 .138 0 .208-.001 10.904-.055 19.862 8.546 19.862 19.451z" fill="url(#SVGID_24_)"/><path d="m490.137 463.439c-.069 0-.138 0-.208 0-10.63 0-21.26-4.06-29.37-12.16-8.1-8.11-18.73-12.16-29.36-12.16-6.902 0-13.799 1.719-20.011 5.136 3.354 1.846 6.511 4.18 9.351 7.024 8.11 8.1 18.74 12.16 29.37 12.16h.208c10.905-.054 19.863 8.547 19.863 19.451v14.867c0 6.761-5.481 12.242-12.242 12.242h40.02c6.761 0 12.242-5.481 12.242-12.242v-14.867c0-10.904-8.958-19.505-19.863-19.451z" fill="url(#SVGID_25_)"/></g><path d="m268.993 114.219v-3.958c0-7.728-6.265-13.993-13.992-13.993-7.728 0-13.993 6.265-13.993 13.993v3.958c0 3.037-1.376 5.934-3.791 7.775-1.314 1.002-2.053 2.131-2.053 3.326 0 4.142 39.672 4.142 39.672 0 0-1.194-.739-2.324-2.053-3.326-2.415-1.842-3.79-4.738-3.79-7.775z" fill="url(#SVGID_26_)"/><path d="m226.659 84.249h56.682v15h-56.682z" fill="url(#SVGID_27_)"/><g><path d="m208.517 147.018v-74.675c0-6.019 5.267-10.898 11.765-10.898s11.765 4.879 11.765 10.898v74.676c0 6.018-5.267 10.898-11.765 10.898s-11.765-4.88-11.765-10.899z" fill="url(#SVGID_28_)"/><path d="m277.954 147.018v-74.675c0-6.019 5.267-10.898 11.765-10.898s11.765 4.879 11.765 10.898v74.676c0 6.018-5.267 10.898-11.765 10.898s-11.765-4.88-11.765-10.899z" fill="url(#SVGID_29_)"/></g><g><path d="m232.05 72.34v28.89c-9.27-.54-17.54-1.43-23.53-2.68v-26.21c0-6.02 5.26-10.89 11.76-10.89s11.77 4.87 11.77 10.89z" fill="url(#SVGID_30_)"/><path d="m301.48 72.34v26.19c-5.99 1.24-14.26 2.14-23.53 2.69v-28.88c0-6.02 5.27-10.89 11.77-10.89s11.76 4.87 11.76 10.89z" fill="url(#SVGID_31_)"/></g><path d="m309.669 159.949-1.676-8.397c-2.993-14.994-102.994-14.994-105.986 0l-1.676 8.397c-1.36 6.812-8.364 13.632-19.412 18.144-6.159 2.515-10.079 5.401-10.961 8.516-3.204 11.326 173.289 11.326 170.085 0-.881-3.115-4.802-6.001-10.961-8.516-11.049-4.512-18.053-11.332-19.413-18.144z" fill="url(#SVGID_32_)"/><path d="m340.042 186.609c-.881-3.115-4.802-6.001-10.961-8.516-11.048-4.512-18.053-11.332-19.412-18.144l-1.676-8.397c-1.741-8.721-36.298-12.368-65.499-10.944 21.003 1.024 39.235 4.671 40.488 10.944l1.676 8.397c1.359 6.812 8.364 13.632 19.412 18.144 6.159 2.515 10.079 5.401 10.961 8.516 1.448 5.116-33.775 7.921-72.537 8.415 47.046.599 99.305-2.206 97.548-8.415z" fill="url(#SVGID_33_)"/><path d="m284.527 53.262c-9.859-2.139-17.745-5.254-22.709-8.937-.696-.517-1.331-1.023-1.908-1.511-2.293-1.941-7.526-1.941-9.82 0-.577.488-1.211.994-1.907 1.51-5.048 3.745-13.235 6.834-23.198 9.044-15.826 3.512-26.341 8.203-26.341 15.274 0 10.973 112.712 10.9 112.712 0 0-7.142-10.731-11.887-26.829-15.38z" fill="url(#SVGID_34_)"/><path d="m284.527 53.262c-9.859-2.139-17.745-5.254-22.709-8.937-.696-.517-1.331-1.023-1.908-1.511-2.293-1.941-7.526-1.941-9.82 0-.577.488-1.211.994-1.907 1.51-.016.012-.032.024-.048.036-2.233 1.649-1.768 5.086.855 5.995 3.174 1.1 6.701 2.077 10.526 2.907 16.098 3.492 26.829 8.237 26.829 15.382 0 4.647-20.489 7.324-43.994 8.019 31.69.939 69.005-1.747 69.005-8.019 0-7.144-10.731-11.889-26.829-15.382z" fill="url(#SVGID_35_)"/><path d="m265.393 11.903c-3.47-2.139-6.246-5.254-7.993-8.937-.245-.517-.469-1.023-.672-1.511-.807-1.941-2.649-1.941-3.456 0-.203.488-.426.994-.671 1.51-1.777 3.745-4.659 6.834-8.165 9.044-5.57 3.512-9.271 8.203-9.271 15.274 0 10.973 9.03 15.997 20.003 15.907 10.878-.09 19.669-5.007 19.669-15.907-.001-7.143-3.778-11.888-9.444-15.38z" fill="url(#SVGID_36_)"/><path d="m303.856 151.355h-97.712c-4.142 0-7.5-3.358-7.5-7.5 0-4.142 3.358-7.5 7.5-7.5h97.712c4.142 0 7.5 3.358 7.5 7.5 0 4.142-3.358 7.5-7.5 7.5z" fill="url(#SVGID_37_)"/></g></svg>