<svg id="Capa_1" enable-background="new 0 0 504.268 504.268" height="512" viewBox="0 0 504.268 504.268" width="512" xmlns="http://www.w3.org/2000/svg"><g><g fill="#b2e5fb"><path d="m264.22 455.041c-11.52 10.697-24.931 20.321-41.516 27.383 3.072 5.018 8.239 8.082 15.254 9.382 15.976-8.17 29.082-18.493 40.319-29.484-2.976-3.753-7.84-6.036-14.057-7.281z"/><path d="m312.371 422.587c11.053-13.995 20.799-25.775 31.719-31.941 0 0-.473-6.399-1.55-7.682-2.12-2.526-7.805-4.282-7.805-4.282-11.777 7.301-21.846 19.128-32.41 32.43 1.141 2.945 4.965 10.261 10.046 11.475z"/><path d="m172.491 422.87-8.993 13.256c15.478 3.277 29.224 10.07 42.715 18.128 4.182-3.548 6.634-7.941 7.329-13.087-12.715-7.564-26.094-14.294-41.051-18.297z"/></g><path d="m390.997 481.844c-1.102.916-27.352 22.422-59.93 22.422-46.808 0-78.691-20.549-106.821-38.679-6.047-3.897-12.015-7.74-18.032-11.334 2.727-4.155 5.18-8.547 7.329-13.087 6.404 3.809 12.643 7.826 18.829 11.813 27.68 17.839 56.303 36.287 98.695 36.287 27.054 0 50.123-18.776 50.353-18.966 3.19-2.633 7.916-2.189 10.555.997 2.638 3.186 2.204 7.903-.978 10.547zm-182.812-93.656c-.719-4.079-4.608-6.804-8.688-6.084-4.079.719-6.803 4.609-6.084 8.688 2.339 13.263-2.797 36.442-16.921 53.274-6.545 7.801-17.602 17.1-33.1 17.1-10.563 0-21.932-4.164-21.932-13.306 0-6.878 7.534-13.842 21.932-13.842 7.065 0 13.732.757 20.107 2.106.504-.547 1.006-1.108 1.502-1.7 3.041-3.624 5.514-7.564 7.491-11.556-9.054-2.423-18.684-3.851-29.1-3.851-24.246 0-36.932 14.509-36.932 28.842 0 13.633 11.557 28.306 36.932 28.306 16.843 0 32.263-7.766 44.591-22.458 15.205-18.119 23.701-45.674 20.202-65.519z" fill="#d3effd"/><path d="m397.809 399.861c0 13.633-11.557 28.306-36.932 28.306-16.282 0-31.318-7.663-43.483-22.16-16.014-19.085-24.977-48.027-21.311-68.818.719-4.08 4.614-6.804 8.688-6.084 4.079.719 6.803 4.609 6.084 8.688-2.513 14.252 3.543 39.309 18.029 56.572 6.432 7.665 17.203 16.802 31.992 16.802 10.563 0 21.932-4.164 21.932-13.306 0-6.878-7.534-13.842-21.932-13.842-6.049 0-11.553 1.671-16.787 4.627-1.394-1.297-2.638-2.64-3.714-3.923-2.12-2.526-3.992-5.238-5.641-8.04 7.76-4.811 16.261-7.664 26.142-7.664 10.765 0 20.012 2.894 26.743 8.368 6.476 5.267 10.19 12.73 10.19 20.474zm-100.015 16.989c-9.985 12.684-20.574 26.121-33.573 38.191 4.591 2.607 9.255 5.058 14.057 7.281 12.193-11.926 22.198-24.628 31.303-36.194.941-1.195 1.87-2.374 2.791-3.541-2.224-2.156-8.891-9.921-10.046-11.475-1.5 1.887-3.007 3.8-4.532 5.738zm-96.251 72.64c-4.019 1.004-6.462 5.075-5.458 9.094.852 3.409 3.91 5.684 7.271 5.684.602 0 1.213-.073 1.824-.226 12.162-3.038 23.003-7.238 32.779-12.237-5.319-3.112-10.39-6.279-15.254-9.382-6.537 2.783-13.565 5.169-21.162 7.067z" fill="#d3effd"/><path d="m126.59 116.143c6.777-2.564 13.883-4.542 21.274-5.845 6.801-1.199 13.725-1.807 20.58-1.807 20.345 0 44.574 9.87 61.413 19.082 16.189-31.93 48.954-58.97 79.74-69.768-16.693-34.224-51.822-57.805-92.463-57.805-25.083 0-48.064 8.986-65.911 23.909-17.482 18.774-26.909 43.828-26.909 68.911.001 7.844.804 15.648 2.276 23.323z" fill="#d3effd"/><path d="m227.899 119.885c-16.839-9.212-36.11-14.394-56.455-14.394-6.855 0-13.779.608-20.58 1.807-7.392 1.303-14.497 3.281-21.274 5.845-1.472-7.676-2.275-15.48-2.275-23.324 0-25.083 8.986-48.064 23.909-65.911-22.557 18.861-36.909 47.208-36.909 78.911 0 69.979 63.472 136.819 102.819 136.819s102.819-66.84 102.819-136.819c0-16.145-3.725-31.418-10.357-45.014-35.456 7.1-65.508 30.15-81.697 62.08z" fill="#b2e5fb"/><path d="m350.799 72.07c-31.08-5.48-61.354 3.625-83.815 22.391-9.146 10.945-19.119 26.914-23.111 41.355 20.712 17.304 35.485 41.728 40.48 70.053 3.69 20.927 2.268 43.851-3.803 66.487 12.47 14.077 26.18 23.517 38.636 25.713 20.122 3.548 53.449-9.546 78.343-35.566 17.793-19.757 31.937-44.466 36.672-71.32 9.862-55.924-27.479-109.252-83.402-119.113z" fill="#ffb3b7"/><path d="m322.186 295.069c-12.456-2.196-26.166-11.636-38.636-25.713 6.071-22.636 7.493-45.56 3.803-66.487-4.994-28.325-19.768-52.749-40.48-70.053 3.992-14.441 10.964-27.409 20.111-38.355-17.953 15-30.916 36.17-35.296 61.012-12.152 68.916 38.749 145.763 77.499 152.595 23.65 4.17 60.474-14.621 88.343-45.566-25.566 23.038-55.222 36.115-75.344 32.567z" fill="#ff9a9f"/><path d="m329.664 204.367c33.846-15.184 49.222-29.074 52.322-46.654 2.468-13.997-6.878-27.345-20.875-29.813-7.524-1.327-14.86.762-20.42 5.15-3.724-6.025-9.902-10.497-17.427-11.824-13.997-2.468-27.345 6.878-29.813 20.875-3.1 17.58 6.598 35.891 33.21 61.735.797.776 1.989.986 3.003.531z" fill="#ff8086"/><path d="m219.197 378.745c-.304-1.724-2.725-5.429-5.614-9.365l-32.064 5.803c-1.345 4.626-2.327 8.858-2.026 10.563.803 4.553 10.342 6.677 21.306 4.744s19.201-7.191 18.398-11.745z" fill="#ffe07d"/><path d="m198.124 376.15c6.933-1.222 12.688-3.869 15.459-6.77-4.74-6.458-10.744-13.543-10.744-13.543l-15.81 2.788s-3.263 8.83-5.51 16.558c3.632 1.689 9.818 2.164 16.605.967z" fill="#ffc250"/><path d="m324.775 335.746c.304-1.724-.704-6.033-2.073-10.721l-32.115-5.513c-2.847 3.887-5.216 7.528-5.517 9.233-.803 4.553 7.434 9.812 18.398 11.745 10.965 1.934 20.504-.19 21.307-4.744z" fill="#ff9a9f"/><path d="m305.86 326.1c6.933 1.222 13.246.704 16.842-1.074-2.246-7.69-5.464-16.4-5.464-16.4l-15.81-2.788s-6.086 7.182-10.841 13.675c2.836 2.828 8.486 5.39 15.273 6.587z" fill="#ff8086"/><path d="m272.581 205.473c-9.861-55.923-63.189-93.264-119.112-83.403-18.324 3.231-34.651 11.129-47.978 22.256-18.789 22.465-30.908 55.757-25.425 86.856 12.152 68.916 86.266 123.719 125.016 116.886 8.64-1.523 20.883-9.535 29.898-17.156 25.718-29.884 45.714-79.426 37.601-125.439z" fill="#fff0af"/><path d="m83.066 228.182c-5.484-31.099 3.636-61.391 22.425-83.856-27.346 22.831-42.054 59.257-35.425 96.856 12.152 68.916 86.266 123.719 125.016 116.886 12.878-2.271 27.096-12.281 39.898-27.156-9.014 7.621-18.258 12.633-26.898 14.156-38.75 6.833-112.864-47.97-125.016-116.886z" fill="#ffe07d"/><path d="m161.667 261.003c-3.087-17.508-16.563-33.57-18.899-46.818s6.51-25.881 19.758-28.217 25.881 6.51 28.217 19.758-4.833 32.95-1.746 50.458c0 0-3.386 1.246-13.554 3.039-10.167 1.793-13.776 1.78-13.776 1.78z" fill="#ffe07d"/><path d="m224.092 242.222c-1.958-3.651-6.503-5.024-10.154-3.067-21.175 11.352-57.75 17.802-81.532 14.376-4.098-.587-7.902 2.255-8.492 6.354-.59 4.1 2.254 7.902 6.354 8.492 5.001.72 10.447 1.064 16.158 1.064 1.389 0 2.798-.028 4.216-.068-3.048 6.062-4.255 13.112-2.989 20.292 3.127 17.732 20.097 29.614 37.829 26.488 17.732-3.127 29.615-20.096 26.488-37.829-1.266-7.178-4.804-13.394-9.739-18.047 6.874-2.284 13.26-4.936 18.794-7.903 3.651-1.956 5.023-6.501 3.067-10.152zm-41.215 59.16c-9.587 1.69-18.762-4.734-20.452-14.32-1.69-9.587 4.734-18.762 14.321-20.452s18.762 4.734 20.452 14.321c1.69 9.586-4.734 18.761-14.321 20.451z" fill="#ffc250"/></g></svg>