<svg width="130" height="70" xmlns="http://www.w3.org/2000/svg">
 <g>
  <path d="M41.87551,37.56726C41.50411,36.17451 39.55425,36.08166 39.55425,37.56726C45.97954,57.14325 12.07054,54.18747 9.09933,47.13085C6.96377,41.65268 46.14811,23.89816 124.45946,19.12409C129.19483,18.65983 129.25828,18.00988 124.33721,18.28843C46.96981,22.12469 3.71401,40.81701 7.42802,47.68794C12.72049,56.78729 47.44653,59.01569 41.87551,37.56726z" stroke-width="0" stroke="#000" fill="#000000"/>
  <path d="M109.53553688682133,47.03546284324768 C110.02453482754939,48.50245666543185 111.73602762009759,48.257957695067816 112.10277607564363,47.402211298793716 C112.46952453118968,46.54646490251962 111.61377813491558,45.446219535881475 110.51353276827744,45.07947108033544 C109.41328740163931,44.7127226247894 109.04653894609328,45.56846902106351 109.53553688682133,47.03546284324768 z" stroke-width="0" stroke="#000" fill="#000000"/>
  <path d="m27.89993,44.74978c11.06244,-3.56249 22.12491,-5.81248 38.43733,-8.93747c1.06249,-0.125 3.3124,0.06254 -0.31248,0.93751c-22.56239,4.24998 -33.62488,7.56246 -38.24985,9.31245c-1.0625,0.375 -1.1875,-1 0.125,-1.31249z" stroke-width="0" stroke="#000" fill="#000000"/>
  <path d="m76.11806,34.17397c0.06743,-3.16925 -4.31557,-2.89953 -1.61834,-0.26972c0.67431,0.53945 0.47202,0.47202 0.47202,0.94403c-0.74174,9.44033 -16.65543,21.1733 -22.31963,9.3729c-7.68712,-16.38571 50.47625,-47.17969 55.83278,-35.72489c3.30411,6.94538 -30.41133,25.48887 -29.53473,29.80445c1.34862,5.46191 13.0816,4.85502 14.02562,9.91234c1.61293,7.93357 -21.40364,12.77574 -71.16655,14.45718c-1.61834,0.06743 -0.67431,0.74337 0.2023,0.67593c48.98692,-1.67873 74.25006,-5.99864 71.94875,-15.30843c-1.83308,-6.43354 -12.13702,-4.70717 -13.55307,-9.50938c-1.41605,-4.80221 33.84435,-22.84026 29.33189,-30.97612c-7.21902,-13.54898 -68.17267,19.7824 -58.54349,37.76129c7.34997,10.85638 23.41202,1.55348 24.92245,-11.13958z" stroke-width="0" stroke="#000" fill="#000000"/>
 </g>
</svg>