<svg id="Layer_1" data-name="Layer 1" xmlns="http://www.w3.org/2000/svg" viewBox="0 0 545.24 88.92"><defs><style>.cls-1{fill:#f39442;}.cls-2{fill:#090400;}</style></defs><title>vector_textlogo_orange</title><path class="cls-1" d="M36.28,419.38c-7.29,0-10.84-4.67-10.84-11.68V352.86h4.77v54.75c0,5.05,1.58,7.57,6.91,7.57h3.27v4.2H36.28" transform="translate(-25.44 -352.86)"/><path class="cls-1" d="M85,419.38V388.55c0-9.44-5.6-14.76-17.47-14.76-7.29,0-12.06,1.59-15.88,6.91l3.45,3c2.81-4.11,6.08-5.7,12.43-5.7,9.15,0,12.71,3.83,12.71,11v5.05H65.67c-9.81,0-15.7,4.77-15.7,13a12.88,12.88,0,0,0,3.27,8.78c2.9,3,6.64,4.11,13.27,4.11,6.35,0,9.91-1.21,13.74-5v4.48H85m-4.76-15.69c0,4.2-.84,7-2.53,8.59-3.17,3.09-7.1,3.46-11.21,3.46-8.13,0-11.77-2.8-11.77-8.78s3.74-9.07,11.49-9.07h14Z" transform="translate(-25.44 -352.86)"/><path class="cls-1" d="M129.21,419.38V391.45c0-8.69-4.39-13.46-12.43-13.46s-12.7,4.95-12.7,13.46v27.93H99.31v-45h4.77v5.32a16.7,16.7,0,0,1,13.26-5.88c5,0,9.07,1.49,12,4.3s4.67,7.19,4.67,12.52v28.77h-4.77" transform="translate(-25.44 -352.86)"/><path class="cls-1" d="M183.22,421.91V374.35h-4.76v5.79c-3.93-5.23-8.32-6.35-13.36-6.35-4.68,0-8.69,1.59-11,3.92-4.58,4.58-5.79,12.06-5.79,19.16s1.21,14.57,5.79,19.15c2.34,2.34,6.35,3.92,11,3.92,5,0,9.43-1.12,13.36-6.35v8c0,8.88-4.21,15.6-13.64,15.6-5.7,0-8.13-1.78-11.69-5L150,435.45c4.77,4.21,8.13,6,14.86,6,11.67,0,18.4-8.22,18.4-19.52m-4.76-25c0,9.34-1.69,18.87-12.71,18.87S153,406.21,153,396.87,154.73,378,165.75,378s12.71,9.53,12.71,18.88" transform="translate(-25.44 -352.86)"/><path class="cls-1" d="M227.42,419.35V414a16.73,16.73,0,0,1-13.27,5.88c-5.05,0-9.07-1.49-12-4.3s-4.67-7.19-4.67-12.52V374.32h4.77v27.93c0,8.69,4.39,13.45,12.42,13.45s12.71-4.94,12.71-13.45V374.32h4.76v45h-4.76" transform="translate(-25.44 -352.86)"/><path class="cls-1" d="M281.52,419.38V388.55c0-9.44-5.61-14.76-17.47-14.76-7.29,0-12.05,1.59-15.89,6.91l3.46,3c2.8-4.11,6.08-5.7,12.43-5.7,9.15,0,12.71,3.83,12.71,11v5.05H262.18c-9.81,0-15.7,4.77-15.7,13a12.88,12.88,0,0,0,3.27,8.78c2.9,3,6.64,4.11,13.27,4.11,6.35,0,9.9-1.21,13.74-5v4.48h4.76m-4.76-15.69c0,4.2-.85,7-2.53,8.59-3.18,3.09-7.1,3.46-11.21,3.46-8.13,0-11.77-2.8-11.77-8.78s3.74-9.07,11.49-9.07h14Z" transform="translate(-25.44 -352.86)"/><path class="cls-1" d="M330.83,422.26V374.7h-4.76v5.79c-3.92-5.23-8.32-6.35-13.36-6.35-4.67,0-8.69,1.59-11,3.92-4.58,4.58-5.79,12.06-5.79,19.16s1.21,14.58,5.79,19.15c2.34,2.34,6.36,3.92,11,3.92,5,0,9.44-1.12,13.36-6.35v8c0,8.88-4.21,15.61-13.64,15.61-5.7,0-8.13-1.79-11.68-5l-3.18,3.17c4.77,4.21,8.13,6,14.86,6,11.68,0,18.4-8.22,18.4-19.52m-4.76-25c0,9.34-1.68,18.87-12.71,18.87s-12.7-9.53-12.7-18.87,1.68-18.88,12.7-18.88,12.71,9.54,12.71,18.88" transform="translate(-25.44 -352.86)"/><path class="cls-1" d="M381.31,397.89v-2.14c0-13.74-6.82-22-18-22s-18,8.59-18,23.08c0,15,6.73,23.07,19.16,23.07,7.47,0,11.68-2.33,16.25-6.91l-3.55-2.81c-3.83,3.84-7.1,5.42-12.42,5.42-9.53,0-14.67-6.34-14.67-17.75h31.3m-4.76-3.83H350c.19-4.29.46-5.7,1.58-8.5a12.8,12.8,0,0,1,23.37,0c1.12,2.8,1.39,4.21,1.59,8.5" transform="translate(-25.44 -352.86)"/><polygon class="cls-2" points="423.3 67.02 413.7 67.02 403.92 37.67 394.13 67.02 384.53 67.02 370.17 20.26 382.56 20.26 390.09 49.15 399.61 20.26 408.13 20.26 417.74 49.15 425.27 20.26 437.57 20.26 423.3 67.02"/><path class="cls-2" d="M472.9,373.12h11.67v46.76H472.9Zm-.18-17.5h11.94v9.51H472.72Z" transform="translate(-25.44 -352.86)"/><path class="cls-2" d="M519.94,385.86a7.77,7.77,0,0,0-6.19-2.78c-3.59,0-7.54,2.69-7.54,8.61v28.19H494.55V373.12H506v4.49a15.77,15.77,0,0,1,11.75-5c4.58,0,7.81,1.17,11,4.4l-8.8,8.88" transform="translate(-25.44 -352.86)"/><path class="cls-2" d="M570.68,400.13v-5.21c0-12.83-7.36-22.34-20.37-22.34-12.12,0-20.38,8.61-20.38,23.87,0,18.94,10.6,24,21.63,24,8.44,0,13-2.6,17.77-7.36l-7.09-6.91c-3,3-5.47,4.4-10.59,4.4-6.55,0-10.23-4.4-10.23-10.41h29.26m-11.49-8H541.42a12.84,12.84,0,0,1,1.08-5,8.71,8.71,0,0,1,15.62,0,12.83,12.83,0,0,1,1.07,5" transform="translate(-25.44 -352.86)"/></svg>