<?xml version="1.0" encoding="iso-8859-1"?>
<!-- Generator: Adobe Illustrator 19.0.0, SVG Export Plug-In . SVG Version: 6.00 Build 0)  -->
<svg version="1.1" id="Capa_1" xmlns="http://www.w3.org/2000/svg" xmlns:xlink="http://www.w3.org/1999/xlink" x="0px" y="0px"
	 viewBox="0 0 468.335 468.335" style="enable-background:new 0 0 468.335 468.335;" xml:space="preserve">
<path style="fill:#EBF0F3;" d="M364.037,364.068C283.654,444.452,161.861,483.54,16.89,462.875
	c-5.9-0.841-10.608-5.556-11.445-11.457c-21.68-152.848,22.821-279.924,112.25-359.865c5.998-5.392,12.178-10.481,18.539-15.389
	c38.896-30.05,85.063-51.982,137.045-64.342c10.36-2.605,21.023-4.665,31.808-6.361c45.292-7.121,94.281-7.439,146.311,0.004
	c5.899,0.844,10.606,5.55,11.45,11.449c7.443,52.031,7.126,101.02,0.004,146.312c-1.697,10.784-3.756,21.448-6.362,31.808
	c-12.42,52.043-34.352,98.21-64.403,137.227c-4.968,6.301-10.057,12.481-15.389,18.418
	C372.641,355.223,368.4,359.706,364.037,364.068z"/>
<g>
	
		<rect x="71.367" y="223.476" transform="matrix(-0.7071 0.7071 -0.7071 -0.7071 565.3611 234.1941)" style="fill:#64798A;" width="325.621" height="21.423"/>
	<path style="fill:#64798A;" d="M330.671,198.265l-60.586-60.586c-4.183-4.183-4.183-10.963,0-15.146
		c4.183-4.183,10.963-4.183,15.146,0l60.586,60.586c4.183,4.183,4.183,10.963,0,15.146
		C341.634,202.448,334.854,202.448,330.671,198.265z"/>
	<path style="fill:#64798A;" d="M281.474,247.461l-60.586-60.586c-4.183-4.183-4.183-10.963,0-15.146
		c4.183-4.183,10.963-4.183,15.146,0l60.586,60.586c4.183,4.183,4.183,10.963,0,15.146
		C292.438,251.644,285.657,251.644,281.474,247.461z"/>
	<path style="fill:#64798A;" d="M232.284,296.652l-60.586-60.586c-4.183-4.183-4.183-10.963,0-15.146s10.963-4.183,15.146,0
		l60.586,60.586c4.183,4.183,4.183,10.963,0,15.146C243.247,300.835,236.467,300.835,232.284,296.652z"/>
	<path style="fill:#64798A;" d="M183.087,345.848l-60.586-60.586c-4.183-4.183-4.183-10.963,0-15.146
		c4.183-4.183,10.963-4.183,15.146,0l60.586,60.586c4.183,4.183,4.183,10.963,0,15.146
		C194.051,350.031,187.27,350.031,183.087,345.848z"/>
	<path style="fill:#64798A;" d="M448.493,203.029c2.606-10.36,4.665-21.023,6.362-31.808
		c-13.753-32.292-35.443-64.645-64.282-93.484c-28.839-28.839-61.192-50.528-93.484-64.282c-10.784,1.697-21.448,3.756-31.808,6.361
		c37.987,11.087,78.156,35.019,113.174,70.037C413.474,124.874,437.405,165.042,448.493,203.029z"/>
	<path style="fill:#64798A;" d="M89.824,378.486c-35.018-35.018-58.95-75.187-70.037-113.174
		c-2.605,10.36-4.665,21.023-6.361,31.808c13.753,32.292,35.443,64.645,64.282,93.484c28.839,28.839,61.192,50.529,93.484,64.282
		c10.784-1.697,21.448-3.756,31.808-6.362C165.011,437.436,124.842,413.505,89.824,378.486z"/>
</g>
<g>
	<path style="fill:#D5D6DB;" d="M359.494,332.161c5.65-6.257,10.996-12.693,16.159-19.31
		c31.616-40.463,55.094-88.175,68.915-141.619c2.9-10.655,5.248-21.607,7.228-32.675c7.315-40.906,9.291-84.626,5.281-130.677
		c3.005,2.099,5.228,5.253,5.768,9.029c7.444,52.031,7.126,101.02,0.004,146.312c-1.696,10.784-3.756,21.448-6.361,31.808
		c-12.36,51.982-34.291,98.149-64.341,137.045c-4.907,6.362-9.997,12.541-15.389,18.539
		c-79.941,89.43-207.017,133.93-359.865,112.251c-3.8-0.539-6.976-2.783-9.075-5.818
		C155.315,469.774,279.121,421.636,359.494,332.161z"/>
	<path style="fill:#D5D6DB;" d="M136.149,108.817c6.257-5.65,12.693-10.996,19.31-16.159
		c40.462-31.616,88.175-55.094,141.619-68.915c10.655-2.9,21.607-5.248,32.675-7.228c40.906-7.315,84.626-9.291,130.677-5.281
		c-2.099-3.005-5.253-5.228-9.029-5.768C399.37-1.979,350.381-1.661,305.088,5.46c-10.784,1.696-21.448,3.756-31.808,6.361
		c-51.982,12.36-98.149,34.292-137.045,64.342c-6.362,4.907-12.541,9.997-18.539,15.389C28.266,171.493-16.234,298.57,5.446,451.417
		c0.539,3.8,2.783,6.977,5.818,9.075C-1.463,312.995,46.674,189.189,136.149,108.817z"/>
</g>
<g>
</g>
<g>
</g>
<g>
</g>
<g>
</g>
<g>
</g>
<g>
</g>
<g>
</g>
<g>
</g>
<g>
</g>
<g>
</g>
<g>
</g>
<g>
</g>
<g>
</g>
<g>
</g>
<g>
</g>
</svg>
